Radio-Canada-Condensed-Italic.ufo
<glyph name="two" format="2">
	<advance width="500"/>
	<unicode hex="0032"/>
	<outline>
		<contour>
			<point x="7" y="0" type="line"/>
			<point x="383" y="0" type="line"/>
			<point x="401" y="83" type="line"/>
			<point x="79" y="83" type="line"/>
			<point x="21" y="66" type="line"/>
		</contour>
		<contour>
			<point x="21" y="66" type="line"/>
			<point x="62" y="0" type="line"/>
			<point x="305" y="264" type="line" smooth="yes"/>
			<point x="403" y="371"/>
			<point x="468" y="447"/>
			<point x="468" y="545" type="curve" smooth="yes"/>
			<point x="468" y="632"/>
			<point x="411" y="700"/>
			<point x="307" y="700" type="curve"/>
			<point x="216" y="700"/>
			<point x="145" y="645"/>
			<point x="112" y="594" type="curve"/>
			<point x="163" y="531" type="line"/>
			<point x="186" y="568"/>
			<point x="238" y="614"/>
			<point x="296" y="614" type="curve" smooth="yes"/>
			<point x="350" y="614"/>
			<point x="375" y="575"/>
			<point x="375" y="530" type="curve" smooth="yes"/>
			<point x="375" y="474"/>
			<point x="327" y="402"/>
			<point x="256" y="325" type="curve" smooth="yes"/>
		</contour>
	</outline>
</glyph>
<glyph name="less" format="2">
	<advance width="500"/>
	<unicode hex="003C"/>
	<outline>
		<contour>
			<point x="53.5" y="250" type="line"/>
			<point x="366.5" y="55" type="line"/>
			<point x="383.5" y="135" type="line"/>
			<point x="121.5" y="295" type="line"/>
			<point x="69.5" y="326" type="line"/>
		</contour>
		<contour>
			<point x="53.5" y="250" type="line"/>
			<point x="118.5" y="270" type="line"/>
			<point x="445.5" y="429" type="line"/>
			<point x="465.5" y="524" type="line"/>
			<point x="69.5" y="326" type="line"/>
		</contour>
	</outline>
</glyph>
<glyph name="greater" format="2">
	<advance width="500"/>
	<unicode hex="003E"/>
	<outline>
		<contour>
			<point x="37" y="55" type="line"/>
			<point x="433" y="253" type="line"/>
			<point x="449" y="329" type="line"/>
			<point x="384" y="309" type="line"/>
			<point x="57" y="150" type="line"/>
		</contour>
		<contour>
			<point x="119" y="444" type="line"/>
			<point x="381" y="284" type="line"/>
			<point x="433" y="253" type="line"/>
			<point x="449" y="329" type="line"/>
			<point x="136" y="524" type="line"/>
		</contour>
	</outline>
</glyph>
<glyph name="E" format="2">
	<advance width="498"/>
	<unicode hex="0045"/>
	<anchor x="343" y="690" name="top"/>
	<anchor x="382" y="0" name="ogonek"/>
	<anchor x="202" y="0" name="bottom"/>
	<outline>
		<contour>
			<point x="17" y="0" type="line"/>
			<point x="106" y="0" type="line"/>
			<point x="253" y="690" type="line"/>
			<point x="164" y="690" type="line"/>
		</contour>
		<contour>
			<point x="60" y="0" type="line"/>
			<point x="382" y="0" type="line"/>
			<point x="399" y="82" type="line"/>
			<point x="80" y="82" type="line"/>
		</contour>
		<contour>
			<point x="124" y="309" type="line"/>
			<point x="406" y="309" type="line"/>
			<point x="422" y="387" type="line"/>
			<point x="143" y="387" type="line"/>
		</contour>
		<contour>
			<point x="185" y="608" type="line"/>
			<point x="505" y="608" type="line"/>
			<point x="521" y="690" type="line"/>
			<point x="206" y="690" type="line"/>
		</contour>
	</outline>
</glyph>
<glyph name="I" format="2">
	<advance width="370"/>
	<unicode hex="0049"/>
	<anchor x="272" y="690" name="top"/>
	<anchor x="248" y="0" name="ogonek"/>
	<anchor x="125" y="0" name="bottom"/>
	<outline>
		<contour>
			<point x="2" y="0" type="line"/>
			<point x="248" y="0" type="line"/>
			<point x="264" y="73" type="line"/>
			<point x="18" y="73" type="line"/>
		</contour>
		<contour>
			<point x="81" y="0" type="line"/>
			<point x="170" y="0" type="line"/>
			<point x="317" y="690" type="line"/>
			<point x="228" y="690" type="line"/>
		</contour>
		<contour>
			<point x="133" y="617" type="line"/>
			<point x="379" y="617" type="line"/>
			<point x="395" y="690" type="line"/>
			<point x="149" y="690" type="line"/>
		</contour>
	</outline>
</glyph>
<glyph name="N" format="2">
	<advance width="589"/>
	<unicode hex="004E"/>
	<anchor x="385" y="690" name="top"/>
	<anchor x="234" y="0" name="bottom"/>
	<outline>
		<contour>
			<point x="17" y="0" type="line"/>
			<point x="101" y="0" type="line"/>
			<point x="248" y="690" type="line"/>
			<point x="164" y="690" type="line"/>
		</contour>
		<contour>
			<point x="194" y="690" type="line"/>
			<point x="346" y="0" type="line"/>
			<point x="426" y="0" type="line"/>
			<point x="275" y="690" type="line"/>
		</contour>
		<contour>
			<point x="368" y="0" type="line"/>
			<point x="452" y="0" type="line"/>
			<point x="599" y="690" type="line"/>
			<point x="515" y="690" type="line"/>
		</contour>
	</outline>
</glyph>
<glyph name="W" format="2">
	<advance width="740"/>
	<unicode hex="0057"/>
	<anchor x="455" y="690" name="top"/>
	<outline>
		<contour>
			<point x="99" y="690" type="line"/>
			<point x="118" y="0" type="line"/>
			<point x="166" y="0" type="line"/>
			<point x="190" y="86" type="line"/>
			<point x="184" y="690" type="line"/>
		</contour>
		<contour>
			<point x="144" y="0" type="line"/>
			<point x="192" y="0" type="line"/>
			<point x="454" y="592" type="line"/>
			<point x="475" y="690" type="line"/>
			<point x="415" y="690" type="line"/>
			<point x="158" y="86" type="line"/>
		</contour>
		<contour>
			<point x="417" y="592" type="line"/>
			<point x="430" y="0" type="line"/>
			<point x="478" y="0" type="line"/>
			<point x="508" y="86" type="line"/>
			<point x="495" y="690" type="line"/>
			<point x="436" y="690" type="line"/>
		</contour>
		<contour>
			<point x="456" y="0" type="line"/>
			<point x="504" y="0" type="line"/>
			<point x="815" y="690" type="line"/>
			<point x="726" y="690" type="line"/>
			<point x="474" y="86" type="line"/>
		</contour>
	</outline>
</glyph>
<glyph name="Z" format="2">
	<advance width="495"/>
	<unicode hex="005A"/>
	<anchor x="324" y="690" name="top"/>
	<outline>
		<contour>
			<point x="-11" y="0" type="line"/>
			<point x="387" y="0" type="line"/>
			<point x="404" y="82" type="line"/>
			<point x="37" y="82" type="line"/>
			<point x="2" y="62" type="line"/>
		</contour>
		<contour>
			<point x="2" y="62" type="line"/>
			<point x="56" y="0" type="line"/>
			<point x="510" y="628" type="line"/>
			<point x="455" y="690" type="line"/>
		</contour>
		<contour>
			<point x="121" y="608" type="line"/>
			<point x="473" y="608" type="line"/>
			<point x="510" y="628" type="line"/>
			<point x="524" y="690" type="line"/>
			<point x="139" y="690" type="line"/>
		</contour>
	</outline>
</glyph>
<glyph name="b" format="2">
	<advance width="497"/>
	<unicode hex="0062"/>
	<outline>
		<contour>
			<point x="13" y="0" type="line"/>
			<point x="92" y="0" type="line"/>
			<point x="113" y="63" type="line"/>
			<point x="156" y="263" type="line" smooth="yes"/>
			<point x="182" y="385"/>
			<point x="245" y="448"/>
			<point x="302" y="448" type="curve" smooth="yes"/>
			<point x="343" y="448"/>
			<point x="370" y="419"/>
			<point x="370" y="340" type="curve" smooth="yes"/>
			<point x="370" y="191"/>
			<point x="291" y="65"/>
			<point x="209" y="65" type="curve" smooth="yes"/>
			<point x="177" y="65"/>
			<point x="142" y="78"/>
			<point x="113" y="118" type="curve"/>
			<point x="98" y="55" type="line"/>
			<point x="126" y="14"/>
			<point x="168" y="-10"/>
			<point x="213" y="-10" type="curve" smooth="yes"/>
			<point x="337" y="-10"/>
			<point x="458" y="154"/>
			<point x="458" y="350" type="curve" smooth="yes"/>
			<point x="458" y="471"/>
			<point x="400" y="525"/>
			<point x="332" y="525" type="curve" smooth="yes"/>
			<point x="273" y="525"/>
			<point x="213" y="485"/>
			<point x="175" y="415" type="curve"/>
			<point x="186" y="402" type="line"/>
			<point x="257" y="732" type="line"/>
			<point x="165" y="716" type="line"/>
		</contour>
	</outline>
</glyph>
<glyph name="i" format="2">
	<advance width="231"/>
	<unicode hex="0069"/>
	<anchor x="100" y="0" name="ogonek"/>
	<anchor x="56" y="0" name="bottom"/>
	<outline>
		<contour>
			<point x="12" y="0" type="line"/>
			<point x="100" y="0" type="line"/>
			<point x="209" y="515" type="line"/>
			<point x="121" y="515" type="line"/>
		</contour>
		<contour>
			<point x="143" y="669" type="curve" smooth="yes"/>
			<point x="143" y="643"/>
			<point x="160" y="623"/>
			<point x="190" y="623" type="curve" smooth="yes"/>
			<point x="224" y="623"/>
			<point x="258" y="650"/>
			<point x="258" y="693" type="curve" smooth="yes"/>
			<point x="258" y="720"/>
			<point x="241" y="740"/>
			<point x="211" y="740" type="curve" smooth="yes"/>
			<point x="176" y="740"/>
			<point x="143" y="711"/>
		</contour>
	</outline>
</glyph>
<glyph name="y" format="2">
	<advance width="416"/>
	<unicode hex="0079"/>
	<anchor x="258" y="514" name="top"/>
	<anchor x="114" y="-87" name="bottom"/>
	<outline>
		<contour>
			<point x="-82" y="-177" type="line"/>
			<point x="-64" y="-187"/>
			<point x="-38" y="-195"/>
			<point x="-17" y="-195" type="curve" smooth="yes"/>
			<point x="52" y="-195"/>
			<point x="109" y="-156"/>
			<point x="169" y="-40" type="curve" smooth="yes"/>
			<point x="458" y="515" type="line"/>
			<point x="370" y="515" type="line"/>
			<point x="144" y="45" type="line"/>
			<point x="123" y="28" type="line"/>
			<point x="76" y="-80"/>
			<point x="29" y="-121"/>
			<point x="-9" y="-121" type="curve" smooth="yes"/>
			<point x="-29" y="-121"/>
			<point x="-43" y="-115"/>
			<point x="-58" y="-108" type="curve"/>
		</contour>
		<contour>
			<point x="56" y="515" type="line"/>
			<point x="126" y="0" type="line"/>
			<point x="169" y="0" type="line"/>
			<point x="190" y="43" type="line"/>
			<point x="143" y="515" type="line"/>
		</contour>
	</outline>
</glyph>
<glyph name="asciitilde" format="2">
	<advance width="500"/>
	<unicode hex="007E"/>
	<outline>
		<contour>
			<point x="69.5" y="286" type="curve"/>
			<point x="139.5" y="286" type="line"/>
			<point x="154.5" y="357"/>
			<point x="175.5" y="388"/>
			<point x="197.5" y="388" type="curve" smooth="yes"/>
			<point x="243.5" y="388"/>
			<point x="253.5" y="281"/>
			<point x="332.5" y="281" type="curve" smooth="yes"/>
			<point x="406.5" y="281"/>
			<point x="441.5" y="346"/>
			<point x="471.5" y="472" type="curve"/>
			<point x="403.5" y="472" type="line"/>
			<point x="388.5" y="401"/>
			<point x="364.5" y="370"/>
			<point x="343.5" y="370" type="curve" smooth="yes"/>
			<point x="297.5" y="370"/>
			<point x="286.5" y="477"/>
			<point x="208.5" y="477" type="curve" smooth="yes"/>
			<point x="138.5" y="477"/>
			<point x="98.5" y="411"/>
		</contour>
	</outline>
</glyph>
<glyph name="brokenbar" format="2">
	<advance width="247"/>
	<unicode hex="00A6"/>
	<outline>
		<contour>
			<point x="-24" y="-215" type="line"/>
			<point x="59" y="-215" type="line"/>
			<point x="137" y="150" type="line"/>
			<point x="54" y="150" type="line"/>
		</contour>
		<contour>
			<point x="97" y="355" type="line"/>
			<point x="180" y="355" type="line"/>
			<point x="258" y="720" type="line"/>
			<point x="175" y="720" type="line"/>
		</contour>
	</outline>
</glyph>
<glyph name="section" format="2">
	<advance width="494"/>
	<unicode hex="00A7"/>
	<outline>
		<contour>
			<point x="-42" y="-118" type="line"/>
			<point x="-2" y="-161"/>
			<point x="58" y="-195"/>
			<point x="144" y="-195" type="curve" smooth="yes"/>
			<point x="274" y="-195"/>
			<point x="355" y="-99"/>
			<point x="355" y="-8" type="curve" smooth="yes"/>
			<point x="355" y="69"/>
			<point x="315" y="114"/>
			<point x="219" y="161" type="curve" smooth="yes"/>
			<point x="140" y="201"/>
			<point x="118" y="231"/>
			<point x="118" y="280" type="curve" smooth="yes"/>
			<point x="118" y="327"/>
			<point x="157" y="376"/>
			<point x="231" y="391" type="curve"/>
			<point x="175" y="431" type="line"/>
			<point x="91" y="405"/>
			<point x="31" y="340"/>
			<point x="31" y="267" type="curve" smooth="yes"/>
			<point x="31" y="180"/>
			<point x="72" y="137"/>
			<point x="174" y="87" type="curve" smooth="yes"/>
			<point x="242" y="52"/>
			<point x="262" y="30"/>
			<point x="262" y="-12" type="curve" smooth="yes"/>
			<point x="262" y="-71"/>
			<point x="214" y="-114"/>
			<point x="150" y="-114" type="curve" smooth="yes"/>
			<point x="93" y="-114"/>
			<point x="43" y="-86"/>
			<point x="13" y="-50" type="curve"/>
		</contour>
		<contour>
			<point x="125" y="513" type="curve" smooth="yes"/>
			<point x="125" y="433"/>
			<point x="166" y="387"/>
			<point x="258" y="340" type="curve" smooth="yes"/>
			<point x="339" y="296"/>
			<point x="362" y="270"/>
			<point x="362" y="226" type="curve" smooth="yes"/>
			<point x="362" y="173"/>
			<point x="321" y="130"/>
			<point x="249" y="115" type="curve"/>
			<point x="303" y="69" type="line"/>
			<point x="378" y="99"/>
			<point x="450" y="152"/>
			<point x="450" y="237" type="curve" smooth="yes"/>
			<point x="450" y="317"/>
			<point x="410" y="358"/>
			<point x="314" y="410" type="curve" smooth="yes"/>
			<point x="248" y="448"/>
			<point x="217" y="471"/>
			<point x="217" y="520" type="curve"/>
			<point x="220" y="578"/>
			<point x="269" y="619"/>
			<point x="341" y="619" type="curve" smooth="yes"/>
			<point x="387" y="619"/>
			<point x="439" y="600"/>
			<point x="468" y="561" type="curve"/>
			<point x="524" y="626" type="line"/>
			<point x="484" y="672"/>
			<point x="426" y="700"/>
			<point x="350" y="700" type="curve" smooth="yes"/>
			<point x="217" y="700"/>
			<point x="125" y="614"/>
		</contour>
	</outline>
</glyph>
<glyph name="guillemetleft" format="2">
	<advance width="416"/>
	<unicode hex="00AB"/>
	<outline>
		<contour>
			<point x="18" y="254" type="line"/>
			<point x="88" y="81" type="line"/>
			<point x="176" y="81" type="line"/>
			<point x="93" y="286" type="line"/>
			<point x="26" y="294" type="line"/>
		</contour>
		<contour>
			<point x="18" y="254" type="line"/>
			<point x="97" y="262" type="line"/>
			<point x="258" y="457" type="line"/>
			<point x="158" y="457" type="line"/>
			<point x="26" y="294" type="line"/>
		</contour>
		<contour>
			<point x="190" y="254" type="line"/>
			<point x="260" y="81" type="line"/>
			<point x="348" y="81" type="line"/>
			<point x="265" y="286" type="line"/>
			<point x="198" y="294" type="line"/>
		</contour>
		<contour>
			<point x="190" y="254" type="line"/>
			<point x="269" y="262" type="line"/>
			<point x="430" y="457" type="line"/>
			<point x="330" y="457" type="line"/>
			<point x="198" y="294" type="line"/>
		</contour>
	</outline>
</glyph>
<glyph name="logicalnot" format="2">
	<advance width="500"/>
	<unicode hex="00AC"/>
	<outline>
		<contour>
			<point x="49.5" y="251" type="line"/>
			<point x="434.5" y="251" type="line"/>
			<point x="453.5" y="329" type="line"/>
			<point x="66.5" y="329" type="line"/>
		</contour>
		<contour>
			<point x="315.5" y="66" type="line"/>
			<point x="397.5" y="66" type="line"/>
			<point x="453.5" y="329" type="line"/>
			<point x="371.5" y="329" type="line"/>
		</contour>
	</outline>
</glyph>
<glyph name="registered" format="2">
	<advance width="827"/>
	<unicode hex="00AE"/>
	<outline>
		<contour>
			<point x="427" y="-10" type="curve" smooth="yes"/>
			<point x="627" y="-10"/>
			<point x="782" y="145"/>
			<point x="782" y="345" type="curve" smooth="yes"/>
			<point x="782" y="545"/>
			<point x="627" y="700"/>
			<point x="427" y="700" type="curve" smooth="yes"/>
			<point x="227" y="700"/>
			<point x="72" y="545"/>
			<point x="72" y="345" type="curve" smooth="yes"/>
			<point x="72" y="145"/>
			<point x="227" y="-10"/>
		</contour>
		<contour>
			<point x="427" y="60" type="curve" smooth="yes"/>
			<point x="267" y="60"/>
			<point x="144" y="185"/>
			<point x="144" y="345" type="curve" smooth="yes"/>
			<point x="144" y="505"/>
			<point x="267" y="630"/>
			<point x="427" y="630" type="curve" smooth="yes"/>
			<point x="587" y="630"/>
			<point x="710" y="505"/>
			<point x="710" y="345" type="curve" smooth="yes"/>
			<point x="710" y="185"/>
			<point x="587" y="60"/>
		</contour>
		<contour>
			<point x="290" y="138" type="line"/>
			<point x="360" y="138" type="line"/>
			<point x="360" y="552" type="line"/>
			<point x="290" y="552" type="line"/>
		</contour>
		<contour>
			<point x="322" y="294" type="line"/>
			<point x="431" y="294" type="line" smooth="yes"/>
			<point x="512" y="294"/>
			<point x="578" y="339"/>
			<point x="578" y="423" type="curve" smooth="yes"/>
			<point x="578" y="506"/>
			<point x="512" y="552"/>
			<point x="431" y="552" type="curve" smooth="yes"/>
			<point x="322" y="552" type="line"/>
			<point x="322" y="492" type="line"/>
			<point x="427" y="492" type="line" smooth="yes"/>
			<point x="474" y="492"/>
			<point x="506" y="468"/>
			<point x="506" y="423" type="curve" smooth="yes"/>
			<point x="506" y="378"/>
			<point x="473" y="352"/>
			<point x="427" y="352" type="curve" smooth="yes"/>
			<point x="322" y="352" type="line"/>
		</contour>
		<contour>
			<point x="408" y="312" type="line"/>
			<point x="508" y="138" type="line"/>
			<point x="590" y="138" type="line"/>
			<point x="484" y="312" type="line"/>
		</contour>
	</outline>
</glyph>
<glyph name="macron" format="2">
	<advance width="500"/>
	<unicode hex="00AF"/>
	<outline>
		<contour>
			<point x="196" y="635" type="line"/>
			<point x="454" y="635" type="line"/>
			<point x="468" y="702" type="line"/>
			<point x="210" y="702" type="line"/>
		</contour>
	</outline>
</glyph>
<glyph name="acute" format="2">
	<advance width="500"/>
	<unicode hex="00B4"/>
	<outline>
		<contour>
			<point x="259" y="589" type="line"/>
			<point x="335" y="589" type="line"/>
			<point x="464" y="739" type="line"/>
			<point x="358" y="739" type="line"/>
		</contour>
	</outline>
</glyph>
<glyph name="onequarter" format="2">
	<advance width="970"/>
	<unicode hex="00BC"/>
	<outline>
		<component base="onesuperior" xOffset="50"/>
		<component base="fraction" xOffset="293"/>
		<contour>
			<point x="557" y="100" type="line"/>
			<point x="837" y="100" type="line"/>
			<point x="849" y="162" type="line"/>
			<point x="601" y="162" type="line"/>
			<point x="568" y="151" type="line"/>
		</contour>
		<contour>
			<point x="568" y="151" type="line"/>
			<point x="600" y="100" type="line"/>
			<point x="823" y="393" type="line"/>
			<point x="763" y="393" type="line"/>
		</contour>
		<contour>
			<point x="704" y="-4" type="line"/>
			<point x="767" y="-4" type="line"/>
			<point x="852" y="393" type="line"/>
			<point x="790" y="393" type="line"/>
		</contour>
	</outline>
</glyph>
<glyph name="threequarters" format="2">
	<advance width="995"/>
	<unicode hex="00BE"/>
	<outline>
		<component base="threesuperior" xOffset="59"/>
		<component base="fraction" xOffset="302"/>
		<contour>
			<point x="582" y="100" type="line"/>
			<point x="862" y="100" type="line"/>
			<point x="874" y="162" type="line"/>
			<point x="626" y="162" type="line"/>
			<point x="593" y="151" type="line"/>
		</contour>
		<contour>
			<point x="593" y="151" type="line"/>
			<point x="625" y="100" type="line"/>
			<point x="848" y="393" type="line"/>
			<point x="788" y="393" type="line"/>
		</contour>
		<contour>
			<point x="729" y="-4" type="line"/>
			<point x="792" y="-4" type="line"/>
			<point x="877" y="393" type="line"/>
			<point x="815" y="393" type="line"/>
		</contour>
	</outline>
</glyph>
<glyph name="Eth" format="2">
	<advance width="570"/>
	<unicode hex="00D0"/>
	<outline>
		<contour>
			<point x="34" y="310" type="line"/>
			<point x="282" y="310" type="line"/>
			<point x="297" y="382" type="line"/>
			<point x="49" y="382" type="line"/>
		</contour>
		<contour>
			<point x="27" y="0" type="line"/>
			<point x="116" y="0" type="line"/>
			<point x="263" y="690" type="line"/>
			<point x="174" y="690" type="line"/>
		</contour>
		<contour>
			<point x="70" y="0" type="line"/>
			<point x="183" y="0" type="line" smooth="yes"/>
			<point x="407" y="0"/>
			<point x="548" y="210"/>
			<point x="548" y="452" type="curve" smooth="yes"/>
			<point x="548" y="580"/>
			<point x="471" y="690"/>
			<point x="316" y="690" type="curve" smooth="yes"/>
			<point x="216" y="690" type="line"/>
			<point x="195" y="608" type="line"/>
			<point x="305" y="608" type="line" smooth="yes"/>
			<point x="399" y="608"/>
			<point x="457" y="551"/>
			<point x="457" y="435" type="curve" smooth="yes"/>
			<point x="457" y="245"/>
			<point x="351" y="82"/>
			<point x="186" y="82" type="curve" smooth="yes"/>
			<point x="90" y="82" type="line"/>
		</contour>
	</outline>
</glyph>
<glyph name="multiply" format="2">
	<advance width="500"/>
	<unicode hex="00D7"/>
	<outline>
		<contour>
			<point x="36" y="137" type="line"/>
			<point x="83" y="79" type="line"/>
			<point x="467" y="446" type="line"/>
			<point x="420" y="504" type="line"/>
		</contour>
		<contour>
			<point x="102" y="455" type="line"/>
			<point x="341" y="81" type="line"/>
			<point x="402" y="126" type="line"/>
			<point x="164" y="499" type="line"/>
		</contour>
	</outline>
</glyph>
<glyph name="thorn" format="2">
	<advance width="501"/>
	<unicode hex="00FE"/>
	<outline>
		<contour>
			<point x="-29" y="-197" type="line"/>
			<point x="62" y="-181" type="line"/>
			<point x="156" y="263" type="line"/>
			<point x="182" y="385"/>
			<point x="245" y="448"/>
			<point x="302" y="448" type="curve" smooth="yes"/>
			<point x="345" y="448"/>
			<point x="370" y="410"/>
			<point x="370" y="335" type="curve" smooth="yes"/>
			<point x="370" y="189"/>
			<point x="291" y="65"/>
			<point x="209" y="65" type="curve" smooth="yes"/>
			<point x="177" y="65"/>
			<point x="142" y="78"/>
			<point x="113" y="118" type="curve"/>
			<point x="98" y="55" type="line"/>
			<point x="126" y="14"/>
			<point x="168" y="-10"/>
			<point x="215" y="-10" type="curve"/>
			<point x="337" y="-10"/>
			<point x="458" y="152"/>
			<point x="458" y="345" type="curve" smooth="yes"/>
			<point x="458" y="469"/>
			<point x="398" y="525"/>
			<point x="332" y="525" type="curve"/>
			<point x="273" y="525"/>
			<point x="213" y="485"/>
			<point x="175" y="415" type="curve"/>
			<point x="186" y="402" type="line"/>
			<point x="257" y="732" type="line"/>
			<point x="165" y="716" type="line"/>
		</contour>
	</outline>
</glyph>
<glyph name="idotless" format="2">
	<advance width="231"/>
	<unicode hex="0131"/>
	<anchor x="100" y="0" name="ogonek"/>
	<anchor x="56" y="0" name="bottom"/>
	<anchor x="165" y="515" name="top"/>
	<outline>
		<contour>
			<point x="12" y="0" type="line"/>
			<point x="100" y="0" type="line"/>
			<point x="209" y="515" type="line"/>
			<point x="121" y="515" type="line"/>
		</contour>
	</outline>
</glyph>
<glyph name="IJ" format="2">
	<advance width="609"/>
	<unicode hex="0132"/>
	<outline>
		<contour>
			<point x="18" y="0" type="line"/>
			<point x="108" y="0" type="line"/>
			<point x="254" y="690" type="line"/>
			<point x="164" y="690" type="line"/>
		</contour>
		<contour>
			<point x="192" y="28" type="line"/>
			<point x="220" y="6"/>
			<point x="260" y="-10"/>
			<point x="306" y="-10" type="curve" smooth="yes"/>
			<point x="404" y="-10"/>
			<point x="492" y="50"/>
			<point x="526" y="214" type="curve" smooth="yes"/>
			<point x="625" y="690" type="line"/>
			<point x="536" y="690" type="line"/>
			<point x="450" y="269" type="line" smooth="yes"/>
			<point x="417" y="106"/>
			<point x="368" y="75"/>
			<point x="315" y="75" type="curve" smooth="yes"/>
			<point x="286" y="75"/>
			<point x="262" y="84"/>
			<point x="244" y="100" type="curve"/>
		</contour>
	</outline>
</glyph>
<glyph name="Tbar" format="2">
	<advance width="462"/>
	<unicode hex="0166"/>
	<outline>
		<contour>
			<point x="74" y="296" type="line"/>
			<point x="396" y="296" type="line"/>
			<point x="411" y="369" type="line"/>
			<point x="89" y="369" type="line"/>
		</contour>
		<contour>
			<point x="94" y="608" type="line"/>
			<point x="507" y="608" type="line"/>
			<point x="525" y="690" type="line"/>
			<point x="112" y="690" type="line"/>
		</contour>
		<contour>
			<point x="128" y="0" type="line"/>
			<point x="217" y="0" type="line"/>
			<point x="364" y="690" type="line"/>
			<point x="275" y="690" type="line"/>
		</contour>
	</outline>
</glyph>
<glyph name="florin" format="2">
	<advance width="500"/>
	<unicode hex="0192"/>
	<outline>
		<contour>
			<point x="-23" y="-176" type="line"/>
			<point x="-6" y="-186"/>
			<point x="22" y="-195"/>
			<point x="52" y="-195" type="curve" smooth="yes"/>
			<point x="114" y="-195"/>
			<point x="185" y="-163"/>
			<point x="213" y="-31" type="curve" smooth="yes"/>
			<point x="338" y="557" type="line" smooth="yes"/>
			<point x="352.8642" y="625"/>
			<point x="381.53085" y="653"/>
			<point x="424" y="653" type="curve" smooth="yes"/>
			<point x="443" y="653"/>
			<point x="461" y="649"/>
			<point x="474" y="641" type="curve"/>
			<point x="505" y="712" type="line"/>
			<point x="486" y="720"/>
			<point x="460" y="730"/>
			<point x="424" y="730" type="curve" smooth="yes"/>
			<point x="336.43976" y="730"/>
			<point x="278.75302" y="681"/>
			<point x="253" y="564" type="curve" smooth="yes"/>
			<point x="131" y="-11" type="line" smooth="yes"/>
			<point x="113" y="-96"/>
			<point x="85" y="-115"/>
			<point x="49" y="-115" type="curve" smooth="yes"/>
			<point x="35" y="-115"/>
			<point x="22" y="-111"/>
			<point x="8" y="-103" type="curve"/>
		</contour>
		<contour>
			<point x="147" y="444" type="line"/>
			<point x="431" y="444" type="line"/>
			<point x="446" y="514" type="line"/>
			<point x="162" y="514" type="line"/>
		</contour>
	</outline>
</glyph>
<glyph name="ipa:schwa" format="2">
	<advance width="467"/>
	<unicode hex="0259"/>
	<outline>
		<contour>
			<point x="29" y="172" type="curve" smooth="yes"/>
			<point x="29" y="75"/>
			<point x="82" y="-10"/>
			<point x="182" y="-10" type="curve" smooth="yes"/>
			<point x="336" y="-10"/>
			<point x="423" y="147"/>
			<point x="423" y="324" type="curve" smooth="yes"/>
			<point x="423" y="460"/>
			<point x="357" y="524"/>
			<point x="257" y="524" type="curve" smooth="yes"/>
			<point x="203" y="524"/>
			<point x="155" y="505"/>
			<point x="107" y="472" type="curve"/>
			<point x="130" y="401" type="line"/>
			<point x="166" y="428"/>
			<point x="207" y="446"/>
			<point x="244" y="446" type="curve" smooth="yes"/>
			<point x="309" y="446"/>
			<point x="341" y="409"/>
			<point x="341" y="321" type="curve" smooth="yes"/>
			<point x="341" y="183"/>
			<point x="290" y="65"/>
			<point x="191" y="65" type="curve" smooth="yes"/>
			<point x="132" y="65"/>
			<point x="109" y="115"/>
			<point x="109" y="177" type="curve" smooth="yes"/>
			<point x="109" y="210"/>
			<point x="121" y="237"/>
			<point x="123" y="244" type="curve"/>
			<point x="95" y="215" type="line"/>
			<point x="347" y="215" type="line"/>
			<point x="363" y="279" type="line"/>
			<point x="46" y="279" type="line"/>
			<point x="40" y="266"/>
			<point x="29" y="226"/>
		</contour>
	</outline>
</glyph>
<glyph name="caron" format="2">
	<advance width="500"/>
	<unicode hex="02C7"/>
	<outline>
		<contour>
			<point x="221" y="739" type="line"/>
			<point x="271" y="589" type="line"/>
			<point x="353" y="589" type="line"/>
			<point x="290" y="739" type="line"/>
		</contour>
		<contour>
			<point x="273" y="589" type="line"/>
			<point x="361" y="589" type="line"/>
			<point x="473" y="739" type="line"/>
			<point x="398" y="739" type="line"/>
		</contour>
	</outline>
</glyph>
<glyph name="tildecomb" format="2">
	<advance width="0"/>
	<unicode hex="0303"/>
	<anchor x="55" y="515" name="_top"/>
	<anchor x="98" y="719" name="top"/>
	<outline>
		<contour>
			<point x="-52" y="608" type="curve"/>
			<point x="-1" y="608" type="line"/>
			<point x="12" y="648"/>
			<point x="22" y="657"/>
			<point x="36" y="657" type="curve" smooth="yes"/>
			<point x="62" y="657"/>
			<point x="82" y="602"/>
			<point x="128" y="602" type="curve"/>
			<point x="174" y="602"/>
			<point x="203" y="647"/>
			<point x="219" y="723" type="curve"/>
			<point x="168" y="723" type="line"/>
			<point x="156" y="683"/>
			<point x="145" y="674"/>
			<point x="131" y="674" type="curve" smooth="yes"/>
			<point x="106" y="674"/>
			<point x="85" y="729"/>
			<point x="39" y="729" type="curve"/>
			<point x="-7" y="729"/>
			<point x="-35" y="684"/>
		</contour>
	</outline>
</glyph>
<glyph name="macroncomb" format="2">
	<advance width="0"/>
	<unicode hex="0304"/>
	<anchor x="55" y="515" name="_top"/>
	<anchor x="98" y="719" name="top"/>
	<outline>
		<contour>
			<point x="-45" y="635" type="line"/>
			<point x="213" y="635" type="line"/>
			<point x="227" y="702" type="line"/>
			<point x="-31" y="702" type="line"/>
		</contour>
	</outline>
</glyph>
<glyph name="brevecomb" format="2">
	<advance width="0"/>
	<unicode hex="0306"/>
	<anchor x="55" y="515" name="_top"/>
	<anchor x="98" y="720" name="top"/>
	<outline>
		<contour>
			<point x="-27" y="694" type="curve" smooth="yes"/>
			<point x="-27" y="643"/>
			<point x="3" y="593"/>
			<point x="72" y="593" type="curve" smooth="yes"/>
			<point x="142" y="593"/>
			<point x="197" y="640"/>
			<point x="212" y="736" type="curve"/>
			<point x="155" y="736" type="line"/>
			<point x="142" y="680"/>
			<point x="116" y="655"/>
			<point x="81" y="655" type="curve" smooth="yes"/>
			<point x="49" y="655"/>
			<point x="32" y="675"/>
			<point x="32" y="704" type="curve" smooth="yes"/>
			<point x="32" y="721"/>
			<point x="34" y="728"/>
			<point x="36" y="736" type="curve"/>
			<point x="-20" y="736" type="line"/>
			<point x="-22" y="728"/>
			<point x="-27" y="713"/>
		</contour>
	</outline>
</glyph>
<glyph name="dotaccentcomb" format="2">
	<advance width="0"/>
	<unicode hex="0307"/>
	<anchor x="56" y="515" name="_top"/>
	<anchor x="98" y="718" name="top"/>
	<outline>
		<contour>
			<point x="39" y="668" type="curve" smooth="yes"/>
			<point x="39" y="645"/>
			<point x="54" y="627"/>
			<point x="81" y="627" type="curve" smooth="yes"/>
			<point x="110" y="627"/>
			<point x="140" y="651"/>
			<point x="140" y="690" type="curve" smooth="yes"/>
			<point x="140" y="714"/>
			<point x="125" y="732"/>
			<point x="99" y="732" type="curve" smooth="yes"/>
			<point x="68" y="732"/>
			<point x="39" y="706"/>
		</contour>
	</outline>
</glyph>
<glyph name="ringcomb" format="2">
	<advance width="0"/>
	<unicode hex="030A"/>
	<anchor x="56" y="515" name="_top"/>
	<anchor x="113" y="774" name="top"/>
	<outline>
		<contour>
			<point x="-4" y="673" type="curve" smooth="yes"/>
			<point x="-4" y="627"/>
			<point x="25" y="586"/>
			<point x="76" y="586" type="curve" smooth="yes"/>
			<point x="139" y="586"/>
			<point x="192" y="641"/>
			<point x="192" y="717" type="curve" smooth="yes"/>
			<point x="192" y="765"/>
			<point x="163" y="804"/>
			<point x="111" y="804" type="curve" smooth="yes"/>
			<point x="48" y="804"/>
			<point x="-4" y="751"/>
		</contour>
		<contour>
			<point x="48" y="677" type="curve" smooth="yes"/>
			<point x="48" y="721"/>
			<point x="74" y="755"/>
			<point x="106" y="755" type="curve" smooth="yes"/>
			<point x="127" y="755"/>
			<point x="140" y="739"/>
			<point x="140" y="713" type="curve" smooth="yes"/>
			<point x="140" y="670"/>
			<point x="113" y="635"/>
			<point x="81" y="635" type="curve" smooth="yes"/>
			<point x="60" y="635"/>
			<point x="48" y="650"/>
		</contour>
	</outline>
</glyph>
<glyph name="caroncomb" format="2">
	<advance width="0"/>
	<unicode hex="030C"/>
	<anchor x="54" y="515" name="_top"/>
	<anchor x="98" y="720" name="top"/>
	<outline>
		<contour>
			<point x="-19" y="739" type="line"/>
			<point x="31" y="589" type="line"/>
			<point x="113" y="589" type="line"/>
			<point x="50" y="739" type="line"/>
		</contour>
		<contour>
			<point x="33" y="589" type="line"/>
			<point x="121" y="589" type="line"/>
			<point x="233" y="739" type="line"/>
			<point x="158" y="739" type="line"/>
		</contour>
	</outline>
</glyph>
<glyph name="horncomb" format="2">
	<advance width="0"/>
	<unicode hex="031B"/>
	<anchor x="55" y="515" name="_horn"/>
	<outline>
		<contour>
			<point x="49" y="489" type="curve"/>
			<point x="49" y="424" type="line"/>
			<point x="183" y="424"/>
			<point x="251" y="515"/>
			<point x="251" y="639" type="curve"/>
			<point x="183" y="639" type="line"/>
			<point x="183" y="543"/>
			<point x="142" y="489"/>
		</contour>
	</outline>
</glyph>
<glyph name="cedillacomb" format="2">
	<advance width="0"/>
	<unicode hex="0327"/>
	<anchor x="-55" y="0" name="_bottom"/>
	<outline>
		<contour>
			<point x="-150" y="-195" type="line"/>
			<point x="-121" y="-195" type="line" smooth="yes"/>
			<point x="-51" y="-195"/>
			<point x="5" y="-163"/>
			<point x="5" y="-108" type="curve" smooth="yes"/>
			<point x="5" y="-80"/>
			<point x="-15" y="-59"/>
			<point x="-45" y="-53" type="curve"/>
			<point x="-23" y="9" type="line"/>
			<point x="-67" y="15" type="line"/>
			<point x="-107" y="-86" type="line"/>
			<point x="-89" y="-88" type="line" smooth="yes"/>
			<point x="-66" y="-91"/>
			<point x="-57" y="-100"/>
			<point x="-57" y="-112" type="curve" smooth="yes"/>
			<point x="-57" y="-133"/>
			<point x="-76" y="-148"/>
			<point x="-132" y="-148" type="curve"/>
		</contour>
	</outline>
</glyph>
<glyph name="quoteleft" format="2">
	<advance width="197"/>
	<unicode hex="2018"/>
	<outline>
		<contour>
			<point x="244" y="720" type="line"/>
			<point x="190" y="720" type="line"/>
			<point x="121" y="594" type="line" smooth="yes"/>
			<point x="104" y="563"/>
			<point x="91" y="540"/>
			<point x="91" y="516" type="curve" smooth="yes"/>
			<point x="91" y="483"/>
			<point x="110" y="462"/>
			<point x="141" y="462" type="curve" smooth="yes"/>
			<point x="177" y="462"/>
			<point x="209" y="491"/>
			<point x="209" y="530" type="curve" smooth="yes"/>
			<point x="209" y="552"/>
			<point x="194" y="568"/>
			<point x="180" y="576" type="curve"/>
		</contour>
	</outline>
</glyph>
<glyph name="guilsinglleft" format="2">
	<advance width="260"/>
	<unicode hex="2039"/>
	<outline>
		<contour>
			<point x="30" y="254" type="line"/>
			<point x="100" y="81" type="line"/>
			<point x="188" y="81" type="line"/>
			<point x="105" y="286" type="line"/>
			<point x="38" y="294" type="line"/>
		</contour>
		<contour>
			<point x="30" y="254" type="line"/>
			<point x="109" y="262" type="line"/>
			<point x="270" y="457" type="line"/>
			<point x="170" y="457" type="line"/>
			<point x="38" y="294" type="line"/>
		</contour>
	</outline>
</glyph>
<glyph name="guilsinglright" format="2">
	<advance width="260"/>
	<unicode hex="203A"/>
	<outline>
		<contour>
			<point x="-16" y="79" type="line"/>
			<point x="85" y="79" type="line"/>
			<point x="216" y="243" type="line"/>
			<point x="224" y="282" type="line"/>
			<point x="146" y="275" type="line"/>
		</contour>
		<contour>
			<point x="66" y="456" type="line"/>
			<point x="150" y="251" type="line"/>
			<point x="216" y="243" type="line"/>
			<point x="224" y="282" type="line"/>
			<point x="153" y="456" type="line"/>
		</contour>
	</outline>
</glyph>
<glyph name="lira" format="2">
	<advance width="500"/>
	<unicode hex="20A4"/>
	<outline>
		<contour>
			<point x="2.5" y="0" type="line"/>
			<point x="380.5" y="0" type="line"/>
			<point x="397.5" y="79" type="line"/>
			<point x="59.5" y="79" type="line"/>
		</contour>
		<contour>
			<point x="2.5" y="0" type="line"/>
			<point x="131.5" y="63"/>
			<point x="225.5" y="167"/>
			<point x="231.5" y="292" type="curve"/>
			<point x="233.5" y="354"/>
			<point x="233.5" y="382"/>
			<point x="235.5" y="429" type="curve"/>
			<point x="239.5" y="542"/>
			<point x="288.5" y="617"/>
			<point x="361.5" y="617" type="curve"/>
			<point x="400.5" y="617"/>
			<point x="431.5" y="596"/>
			<point x="453.5" y="554" type="curve"/>
			<point x="517.5" y="607" type="line"/>
			<point x="487.5" y="665"/>
			<point x="438.5" y="700"/>
			<point x="364.5" y="700" type="curve"/>
			<point x="254.5" y="700"/>
			<point x="155.5" y="607"/>
			<point x="148.5" y="437" type="curve"/>
			<point x="145.5" y="387"/>
			<point x="149.5" y="356"/>
			<point x="147.5" y="319" type="curve" smooth="yes"/>
			<point x="143.5" y="238"/>
			<point x="106.5" y="138"/>
			<point x="20.5" y="83" type="curve"/>
		</contour>
		<contour>
			<point x="63" y="242" type="line"/>
			<point x="368" y="242" type="line"/>
			<point x="384" y="316" type="line"/>
			<point x="79" y="316" type="line"/>
		</contour>
		<contour>
			<point x="63" y="382" type="line"/>
			<point x="368" y="382" type="line"/>
			<point x="384" y="456" type="line"/>
			<point x="79" y="456" type="line"/>
		</contour>
	</outline>
</glyph>
<glyph name="naira" format="2">
	<advance width="589"/>
	<unicode hex="20A6"/>
	<outline>
		<component base="N"/>
		<contour>
			<point x="27" y="309" type="line"/>
			<point x="585" y="309" type="line"/>
			<point x="599" y="376" type="line"/>
			<point x="41" y="376" type="line"/>
		</contour>
	</outline>
</glyph>
<glyph name="peseta" format="2">
	<advance width="528"/>
	<unicode hex="20A7"/>
	<outline>
		<component base="P" xOffset="6"/>
		<contour>
			<point x="44" y="424" type="line"/>
			<point x="552" y="424" type="line"/>
			<point x="566" y="491" type="line"/>
			<point x="58" y="491" type="line"/>
		</contour>
	</outline>
</glyph>
<glyph name="dong" format="2">
	<advance width="499"/>
	<unicode hex="20AB"/>
	<outline>
		<component base="d"/>
		<contour>
			<point x="-10" y="-151" type="line"/>
			<point x="362" y="-151" type="line"/>
			<point x="376" y="-84" type="line"/>
			<point x="4" y="-84" type="line"/>
		</contour>
		<contour>
			<point x="300" y="579" type="line"/>
			<point x="542" y="579" type="line"/>
			<point x="556" y="646" type="line"/>
			<point x="314" y="646" type="line"/>
		</contour>
	</outline>
</glyph>
<glyph name="kip" format="2">
	<advance width="509"/>
	<unicode hex="20AD"/>
	<outline>
		<component base="K"/>
		<contour>
			<point x="26" y="309" type="line"/>
			<point x="404" y="309" type="line"/>
			<point x="418" y="376" type="line"/>
			<point x="40" y="376" type="line"/>
		</contour>
	</outline>
</glyph>
<glyph name="rupeeIndian" format="2">
	<advance width="519"/>
	<unicode hex="20B9"/>
	<outline>
		<contour>
			<point x="106" y="263" type="line"/>
			<point x="219" y="263" type="line" smooth="yes"/>
			<point x="398" y="263"/>
			<point x="499" y="398"/>
			<point x="499" y="517" type="curve" smooth="yes"/>
			<point x="499" y="611"/>
			<point x="447" y="690"/>
			<point x="315" y="690" type="curve" smooth="yes"/>
			<point x="206" y="690" type="line"/>
			<point x="185" y="608" type="line"/>
			<point x="290" y="608" type="line" smooth="yes"/>
			<point x="374" y="608"/>
			<point x="405" y="573"/>
			<point x="405" y="510" type="curve" smooth="yes"/>
			<point x="405" y="428"/>
			<point x="351" y="342"/>
			<point x="228" y="342" type="curve" smooth="yes"/>
			<point x="127" y="342" type="line"/>
		</contour>
		<contour>
			<point x="106" y="263" type="line"/>
			<point x="273" y="0" type="line"/>
			<point x="369" y="0" type="line"/>
			<point x="194" y="263" type="line"/>
		</contour>
		<contour>
			<point x="57" y="428" type="line"/>
			<point x="543" y="428" type="line"/>
			<point x="557" y="495" type="line"/>
			<point x="71" y="495" type="line"/>
		</contour>
		<contour>
			<point x="217" y="623" type="line"/>
			<point x="585" y="623" type="line"/>
			<point x="599" y="690" type="line"/>
			<point x="231" y="690" type="line"/>
		</contour>
	</outline>
</glyph>
<glyph name="liraTurkish" format="2">
	<advance width="476"/>
	<unicode hex="20BA"/>
	<outline>
		<contour>
			<point x="17" y="0" type="line"/>
			<point x="106" y="0" type="line"/>
			<point x="253" y="690" type="line"/>
			<point x="164" y="690" type="line"/>
		</contour>
		<contour>
			<point x="80" y="0" type="line"/>
			<point x="253" y="0"/>
			<point x="412" y="48"/>
			<point x="412" y="254" type="curve"/>
			<point x="331" y="254" type="line"/>
			<point x="331" y="112"/>
			<point x="243" y="82"/>
			<point x="100" y="82" type="curve"/>
		</contour>
		<contour>
			<point x="20" y="241" type="line"/>
			<point x="268" y="332" type="line"/>
			<point x="284" y="406" type="line"/>
			<point x="36" y="315" type="line"/>
		</contour>
		<contour>
			<point x="37" y="387" type="line"/>
			<point x="288" y="483" type="line"/>
			<point x="304" y="557" type="line"/>
			<point x="53" y="461" type="line"/>
		</contour>
	</outline>
</glyph>
<glyph name="manat" format="2">
	<advance width="567"/>
	<unicode hex="20BC"/>
	<outline>
		<component base="U" xScale="-1" yScale="-1" xOffset="598" yOffset="690"/>
		<contour>
			<point x="185" y="0" type="line"/>
			<point x="268" y="0" type="line"/>
			<point x="439" y="804" type="line"/>
			<point x="356" y="804" type="line"/>
		</contour>
	</outline>
</glyph>
<glyph name="ruble" format="2">
	<advance width="502"/>
	<unicode hex="20BD"/>
	<outline>
		<component base="P"/>
		<contour>
			<point x="-19" y="107" type="line"/>
			<point x="233" y="107" type="line"/>
			<point x="247" y="174" type="line"/>
			<point x="-5" y="174" type="line"/>
		</contour>
		<contour>
			<point x="9" y="235" type="line"/>
			<point x="211" y="235" type="line"/>
			<point x="228" y="308" type="line"/>
			<point x="26" y="308" type="line"/>
		</contour>
	</outline>
</glyph>
<glyph name="litre" format="2">
	<advance width="429"/>
	<unicode hex="2113"/>
	<outline>
		<contour>
			<point x="18" y="226" type="curve"/>
			<point x="31" y="161" type="line"/>
			<point x="238" y="213"/>
			<point x="437" y="394"/>
			<point x="437" y="586" type="curve" smooth="yes"/>
			<point x="437" y="673"/>
			<point x="396" y="730"/>
			<point x="323" y="730" type="curve" smooth="yes"/>
			<point x="236" y="730"/>
			<point x="181" y="668"/>
			<point x="157" y="551" type="curve" smooth="yes"/>
			<point x="75" y="155" type="line" smooth="yes"/>
			<point x="51" y="49"/>
			<point x="92" y="-10"/>
			<point x="175" y="-10" type="curve"/>
			<point x="206" y="-10"/>
			<point x="243" y="-3"/>
			<point x="271" y="10" type="curve"/>
			<point x="260" y="87" type="line"/>
			<point x="234" y="76"/>
			<point x="217" y="71"/>
			<point x="200" y="71" type="curve"/>
			<point x="168" y="71"/>
			<point x="150" y="92"/>
			<point x="163" y="157" type="curve" smooth="yes"/>
			<point x="242" y="545" type="line" smooth="yes"/>
			<point x="255" y="607"/>
			<point x="281" y="653"/>
			<point x="315" y="653" type="curve" smooth="yes"/>
			<point x="340" y="653"/>
			<point x="351" y="625"/>
			<point x="351" y="581" type="curve" smooth="yes"/>
			<point x="351" y="434"/>
			<point x="213" y="281"/>
		</contour>
	</outline>
</glyph>
<glyph name="greaterequal" format="2">
	<advance width="500"/>
	<unicode hex="2265"/>
	<outline>
		<contour>
			<point x="40" y="71" type="line"/>
			<point x="393" y="71" type="line"/>
			<point x="410" y="150" type="line"/>
			<point x="57" y="150" type="line"/>
			<point x="57" y="150" type="line"/>
		</contour>
		<contour>
			<point x="60" y="167" type="line"/>
			<point x="447" y="323" type="line"/>
			<point x="464" y="403" type="line"/>
			<point x="400" y="384" type="line"/>
			<point x="80" y="258" type="line"/>
		</contour>
		<contour>
			<point x="127" y="480" type="line"/>
			<point x="393" y="354" type="line"/>
			<point x="447" y="323" type="line"/>
			<point x="464" y="403" type="line"/>
			<point x="144" y="559" type="line"/>
		</contour>
	</outline>
</glyph>
<glyph name="leftanglebracket-math" format="2">
	<advance width="370"/>
	<unicode hex="27E8"/>
	<outline>
		<contour>
			<point x="153" y="-185" type="line"/>
			<point x="211" y="-185" type="line"/>
			<point x="136" y="326" type="line"/>
			<point x="413" y="720" type="line"/>
			<point x="345" y="720" type="line"/>
			<point x="73" y="330" type="line"/>
		</contour>
	</outline>
</glyph>
<glyph name="gem" format="2">
	<advance width="1088"/>
	<unicode hex="F8FF"/>
	<outline>
		<contour>
			<point x="52" y="320" type="curve" smooth="yes"/>
			<point x="52" y="256"/>
			<point x="88" y="198"/>
			<point x="139" y="167" type="curve"/>
			<point x="139" y="473" type="line"/>
			<point x="88" y="442"/>
			<point x="52" y="384"/>
		</contour>
		<contour>
			<point x="168" y="320" type="curve" smooth="yes"/>
			<point x="168" y="221"/>
			<point x="248" y="141"/>
			<point x="346" y="141" type="curve"/>
			<point x="346" y="499" type="line"/>
			<point x="248" y="499"/>
			<point x="168" y="419"/>
		</contour>
		<contour>
			<point x="176" y="114" type="line"/>
			<point x="176" y="20"/>
			<point x="252" y="-56"/>
			<point x="346" y="-56" type="curve"/>
			<point x="346" y="114" type="line"/>
		</contour>
		<contour>
			<point x="176" y="526" type="curve"/>
			<point x="346" y="526" type="line"/>
			<point x="346" y="696" type="line"/>
			<point x="252" y="696"/>
			<point x="176" y="620"/>
		</contour>
		<contour>
			<point x="373" y="114" type="line"/>
			<point x="373" y="16"/>
			<point x="453" y="-64"/>
			<point x="552" y="-64" type="curve" smooth="yes"/>
			<point x="651" y="-64"/>
			<point x="731" y="16"/>
			<point x="731" y="114" type="curve"/>
		</contour>
		<contour>
			<point x="373" y="320" type="curve" smooth="yes"/>
			<point x="373" y="221"/>
			<point x="453" y="141"/>
			<point x="552" y="141" type="curve" smooth="yes"/>
			<point x="651" y="141"/>
			<point x="731" y="221"/>
			<point x="731" y="320" type="curve" smooth="yes"/>
			<point x="731" y="419"/>
			<point x="651" y="499"/>
			<point x="552" y="499" type="curve" smooth="yes"/>
			<point x="453" y="499"/>
			<point x="373" y="419"/>
		</contour>
		<contour>
			<point x="373" y="526" type="curve"/>
			<point x="731" y="526" type="line"/>
			<point x="731" y="624"/>
			<point x="651" y="704"/>
			<point x="552" y="704" type="curve" smooth="yes"/>
			<point x="453" y="704"/>
			<point x="373" y="624"/>
		</contour>
		<contour>
			<point x="399" y="-93" type="line"/>
			<point x="430" y="-144"/>
			<point x="488" y="-180"/>
			<point x="552" y="-180" type="curve" smooth="yes"/>
			<point x="616" y="-180"/>
			<point x="674" y="-144"/>
			<point x="705" y="-93" type="curve"/>
		</contour>
		<contour>
			<point x="399" y="733" type="curve"/>
			<point x="705" y="733" type="line"/>
			<point x="674" y="784"/>
			<point x="616" y="820"/>
			<point x="552" y="820" type="curve" smooth="yes"/>
			<point x="488" y="820"/>
			<point x="430" y="784"/>
		</contour>
		<contour>
			<point x="758" y="-56" type="line"/>
			<point x="852" y="-56"/>
			<point x="928" y="20"/>
			<point x="928" y="114" type="curve"/>
			<point x="758" y="114" type="line"/>
		</contour>
		<contour>
			<point x="758" y="141" type="line"/>
			<point x="856" y="141"/>
			<point x="936" y="221"/>
			<point x="936" y="320" type="curve" smooth="yes"/>
			<point x="936" y="419"/>
			<point x="856" y="499"/>
			<point x="758" y="499" type="curve"/>
		</contour>
		<contour>
			<point x="758" y="526" type="line"/>
			<point x="928" y="526" type="line"/>
			<point x="928" y="620"/>
			<point x="852" y="696"/>
			<point x="758" y="696" type="curve"/>
		</contour>
		<contour>
			<point x="965" y="167" type="line"/>
			<point x="1016" y="198"/>
			<point x="1052" y="256"/>
			<point x="1052" y="320" type="curve" smooth="yes"/>
			<point x="1052" y="384"/>
			<point x="1016" y="442"/>
			<point x="965" y="473" type="curve"/>
		</contour>
	</outline>
</glyph>
<glyph name=".notdef" format="2">
	<advance width="500"/>
	<outline>
		<contour>
			<point x="82" y="-185" type="line"/>
			<point x="159" y="-185" type="line"/>
			<point x="159" y="690" type="line"/>
			<point x="82" y="690" type="line"/>
		</contour>
		<contour>
			<point x="110" y="-185" type="line"/>
			<point x="379" y="-185" type="line"/>
			<point x="379" y="-111" type="line"/>
			<point x="110" y="-111" type="line"/>
		</contour>
		<contour>
			<point x="110" y="616" type="line"/>
			<point x="379" y="616" type="line"/>
			<point x="379" y="690" type="line"/>
			<point x="110" y="690" type="line"/>
		</contour>
		<contour>
			<point x="329" y="-185" type="line"/>
			<point x="406" y="-185" type="line"/>
			<point x="406" y="690" type="line"/>
			<point x="329" y="690" type="line"/>
		</contour>
	</outline>
</glyph>
<glyph name="caroncomb.alt" format="2">
	<advance width="0"/>
	<anchor x="55" y="515" name="_top"/>
	<anchor x="98" y="720" name="top"/>
	<outline>
		<contour>
			<point x="-11" y="589" type="line"/>
			<point x="65" y="589" type="line"/>
			<point x="194" y="739" type="line"/>
			<point x="88" y="739" type="line"/>
		</contour>
	</outline>
</glyph>
<glyph name="seven.pl" format="2">
	<advance width="480"/>
	<outline>
		<contour>
			<point x="60" y="0" type="line"/>
			<point x="164" y="0" type="line"/>
			<point x="487" y="628" type="line"/>
			<point x="430" y="690" type="line"/>
		</contour>
		<contour>
			<point x="112" y="602" type="line"/>
			<point x="441" y="602" type="line"/>
			<point x="487" y="628" type="line"/>
			<point x="501" y="690" type="line"/>
			<point x="131" y="690" type="line"/>
		</contour>
	</outline>
</glyph>
